<?xml version="1.0" encoding="UTF-8" standalone="no"?>
<!DOCTYPE svg PUBLIC "-//W3C//DTD SVG 1.1//EN" "http://www.w3.org/Graphics/SVG/1.1/DTD/svg11.dtd">
<svg version="1.1" xmlns="http://www.w3.org/2000/svg" xmlns:xlink="http://www.w3.org/1999/xlink" preserveAspectRatio="xMidYMid meet" viewBox="138.29733940354146 100.19047619047622 316.89406691630353 401.8396099155661" width="1812.89" height="1897.84"><defs><path d="M303.11 344.06C303.68 344.06 304.24 344.05 304.8 344.04C334.53 343.37 356.08 324.79 350.6 305.3C349.71 302.13 345.25 286.28 337.22 257.75L333.84 245.72L273.91 246.74L270.27 258.51C261.67 286.3 256.89 301.75 255.94 304.84C249.87 324.43 271.42 343.37 301.42 344.04C301.98 344.05 302.54 344.06 303.11 344.06Z" id="d1fOo1iVEF"></path><path d="M270.27 258.51C291.08 270.4 316.69 270.11 337.22 257.75C337 256.95 335.87 252.93 333.84 245.72L273.91 246.74C271.97 253.01 270.76 256.94 270.27 258.51Z" id="g2UNUAxZfv"></path><path d="M216.66 279.73C166.53 271.08 179.57 240.62 180.15 239.33C181.37 236.62 180.14 234.81 177.38 235.29C174.25 236.08 171.6 238.18 170.12 241.06C169.38 242.64 152.65 279.93 209.22 289.69C260.13 298.47 260.31 319.85 260.3 320.07C260.17 322.43 262.52 323.15 265.56 321.69C268.6 320.22 271.18 317.12 271.32 314.76C271.35 314.26 271.55 308.32 265.52 301.24C259.06 293.63 245.41 284.69 216.66 279.73Z" id="avpWwFK2s"></path><path d="M337.68 344.06C337.68 344.06 337.68 344.06 337.68 344.06C337.68 341.06 337.68 317.09 337.68 314.09C337.68 310.27 334.58 307.18 330.76 307.19C326.95 307.19 323.86 310.28 323.85 314.09C323.85 317.09 323.85 341.06 323.85 344.06C323.85 347.88 326.95 350.97 330.77 350.97C330.77 350.97 330.77 350.97 330.77 350.97C334.59 350.97 337.68 347.88 337.68 344.06Z" id="e1yhhSmRbu"></path><path d="M333.88 283.23C333.88 283.23 333.88 283.23 333.88 283.23C336.6 281.98 358.38 271.96 361.1 270.7C364.57 269.11 366.09 265.01 364.5 261.54C362.91 258.07 358.8 256.54 355.33 258.14C355.33 258.14 355.32 258.14 355.32 258.14C352.6 259.39 330.82 269.41 328.1 270.67C324.63 272.26 323.11 276.37 324.71 279.84C324.71 279.84 324.71 279.84 324.71 279.84C326.3 283.31 330.41 284.82 333.88 283.23Z" id="b1lADnCcI3"></path><path d="M272.34 283.23C272.34 283.23 272.34 283.23 272.34 283.23C269.62 281.98 247.84 271.96 245.12 270.7C241.65 269.11 240.13 265.01 241.72 261.54C243.31 258.07 247.42 256.54 250.89 258.14C250.89 258.14 250.9 258.14 250.9 258.14C253.62 259.39 275.4 269.41 278.12 270.67C281.59 272.26 283.11 276.37 281.51 279.84C281.51 279.84 281.51 279.84 281.51 279.84C279.92 283.31 275.81 284.82 272.34 283.23Z" id="a7YVKKQSr"></path><path d="M268.54 344.06C268.54 344.06 268.54 344.06 268.54 344.06C268.54 341.06 268.54 317.09 268.54 314.09C268.54 310.27 271.64 307.18 275.46 307.19C279.27 307.19 282.36 310.28 282.37 314.09C282.37 317.09 282.37 341.06 282.37 344.06C282.37 347.88 279.27 350.97 275.45 350.97C275.45 350.97 275.45 350.97 275.45 350.97C271.63 350.97 268.54 347.88 268.54 344.06Z" id="f3EGJr9j2t"></path><path d="M358.73 151.59C358.48 150.11 357.23 142.73 354.97 129.45C352.71 116.16 351.46 108.78 351.21 107.31C350.57 103.55 347 101.02 343.24 101.66C342.04 101.86 340.92 102.37 339.99 103.15C338.84 104.1 333.07 108.88 322.7 117.48C316.68 122.46 313.33 125.24 312.66 125.79C305.68 124.77 298.58 124.87 291.63 126.11C290.94 125.53 287.47 122.66 281.22 117.48C270.84 108.88 265.08 104.1 263.93 103.15C260.99 100.71 256.63 101.12 254.2 104.06C253.43 104.99 252.91 106.11 252.71 107.31C252.46 108.78 251.2 116.16 248.94 129.45C246.69 142.73 245.43 150.11 245.18 151.59C244.85 153.5 245.35 155.47 246.55 156.99C227.67 188.22 237.67 228.85 268.9 247.73C300.13 266.62 340.76 256.61 359.65 225.38C372.79 203.65 372.31 176.32 358.43 155.06C358.83 153.94 358.93 152.75 358.73 151.59Z" id="b1rRTghDqd"></path><path d="M318.58 130.39C318.58 130.39 318.58 130.39 318.58 130.39C317.13 131.59 316.93 133.75 318.13 135.2C318.52 135.66 319.01 136.02 319.58 136.23C322.13 137.17 342.55 144.75 345.11 145.7C346.88 146.35 348.85 145.45 349.5 143.68C349.71 143.12 349.77 142.51 349.67 141.92C349.21 139.23 345.56 117.76 345.1 115.07C344.91 113.86 344.07 112.86 342.92 112.44C342.54 112.29 342.13 112.22 341.72 112.22C340.93 112.22 340.16 112.5 339.55 113.01C339.55 113.01 332.56 118.8 318.58 130.39Z" id="a1btPqFjEE"></path><path d="M258.81 115.07C258.35 117.76 254.7 139.23 254.25 141.92C253.93 143.78 255.18 145.55 257.04 145.86C257.64 145.96 258.24 145.91 258.81 145.7C261.36 144.75 281.79 137.17 284.34 136.23C286.11 135.57 287.01 133.6 286.36 131.83C286.15 131.27 285.79 130.77 285.33 130.39C283.23 128.65 266.46 114.75 264.36 113.01C263.75 112.5 262.99 112.22 262.19 112.22C261.78 112.22 261.38 112.29 260.99 112.44C259.84 112.86 259.01 113.86 258.81 115.07Z" id="aceeXAr3AC"></path><path d="M303.11 191.17C298.02 191.17 293.89 195.29 293.89 200.39C293.89 205.48 298.02 209.61 303.11 209.61C308.2 209.61 312.33 205.48 312.33 200.39C312.33 195.29 308.2 191.17 303.11 191.17Z" id="b1EZczkHJ"></path><path d="M309.26 195.78C309.26 197.05 306.5 198.08 303.11 198.08C299.71 198.08 296.96 197.05 296.96 195.78C296.96 194.5 299.71 193.47 303.11 193.47C306.5 193.47 309.26 194.5 309.26 195.78Z" id="f1gMnATd81"></path><path d="M303.49 220.36C301.16 220.36 299.27 218.47 299.27 216.14C299.27 216.14 299.27 216.14 299.27 216.14C299.27 215.45 299.27 211.99 299.27 205.76L307.72 205.76C307.72 211.99 307.72 215.45 307.72 216.14C307.72 218.47 305.83 220.36 303.49 220.36C303.49 220.36 303.49 220.36 303.49 220.36C303.49 220.36 303.49 220.36 303.49 220.36Z" id="asRuW4Zal"></path><path d="M303.87 103.99C308.64 115.11 310.25 127.33 308.52 139.3C307.66 138.05 306.75 136.74 305.82 135.42C307.8 123.92 306.69 112.11 302.6 101.19C303.04 102.11 303.47 103.04 303.87 103.99Z" id="d1DBkiIdd"></path><path d="M296.96 112.44C301.73 123.56 303.34 135.78 301.61 147.75C300.74 146.5 299.83 145.19 298.91 143.87C300.89 132.37 299.77 120.56 295.68 109.64C296.12 110.56 296.56 111.49 296.96 112.44Z" id="c5AkTP9mI"></path><path d="M275.34 128.72C275.92 121.28 276.25 117.15 276.31 116.33C276.48 114.22 278.32 112.65 280.42 112.82C281.09 112.87 281.73 113.1 282.29 113.48C282.97 113.95 286.38 116.29 292.53 120.52C297.02 123.6 299.51 125.31 300.01 125.66C301.83 123.52 305.05 123.26 307.18 125.09C307.39 125.26 307.58 125.45 307.75 125.66C308.25 125.31 310.74 123.6 315.23 120.52C321.37 116.29 324.79 113.95 325.47 113.48C327.21 112.28 329.59 112.72 330.78 114.46C331.16 115.02 331.39 115.66 331.44 116.33C331.51 117.15 331.83 121.28 332.42 128.72C333 136.15 333.33 140.28 333.39 141.1C333.56 143.21 331.99 145.05 329.88 145.21C329.21 145.27 328.54 145.14 327.94 144.85C327.19 144.5 323.45 142.71 316.72 139.5C311.19 136.87 308.12 135.4 307.51 135.11C305.53 137.11 302.3 137.13 300.3 135.16C300.28 135.14 300.27 135.12 300.25 135.11C299.64 135.4 296.56 136.87 291.03 139.5C284.31 142.71 280.57 144.5 279.82 144.85C277.91 145.76 275.63 144.96 274.72 143.05C274.44 142.44 274.31 141.77 274.36 141.1C274.49 139.45 274.82 135.32 275.34 128.72Z" id="bmwsUl1O5"></path><path d="M315.4 190.4C316.67 190.4 317.71 191.67 317.71 190.4C317.7 189.13 316.67 188.1 315.4 188.1C314.13 188.1 313.1 189.13 313.1 190.4C313.1 191.67 314.13 190.4 315.4 190.4Z" id="bDpzwSvZl"></path><path d="M290.82 190.4C289.54 190.4 288.51 191.67 288.51 190.4C288.51 189.13 289.55 188.1 290.82 188.1C292.09 188.1 293.12 189.13 293.12 190.4C293.12 191.67 292.09 190.4 290.82 190.4Z" id="c3F2sPE07f"></path><path d="M333.66 349.77L260.4 349.77L260.4 350.69L260.4 364.42L260.4 415.7L260.4 430.35L260.4 482.55L260.4 497.2L275.05 497.2L333.66 497.2L333.66 482.55L275.05 482.55L275.05 430.35L333.66 430.35L333.66 415.7L275.05 415.7L275.05 364.42L333.66 364.42L333.66 364.42L333.66 349.77Z" id="d2mAdHZ52b"></path><path d="M437.54 473.61L398.91 434.98L398.82 435.07L398.74 434.99L359.25 474.48L359.25 352.07L344.6 352.07L344.6 498.57L359.25 498.57L359.25 495.2L398.83 455.62L437.54 494.33L437.54 499.03L452.19 499.03L452.19 352.52L437.54 352.52L437.54 352.52L437.54 473.61Z" id="b14HMb0f0I"></path><path d="M232.24 353.61L192.66 393.19L153.95 354.48L153.95 349.77L139.3 349.77L139.3 496.28L153.95 496.28L153.95 375.19L192.58 413.82L192.67 413.73L192.75 413.81L232.24 374.32L232.24 496.74L246.89 496.74L246.89 350.23L232.24 350.23L232.24 350.23L232.24 353.61Z" id="b6hPweewLU"></path><path d="M398.4 355.43C393.43 355.43 389.4 359.45 389.4 364.42C389.4 369.39 393.43 373.41 398.4 373.41C403.36 373.41 407.39 369.39 407.39 364.42C407.39 359.45 403.36 355.43 398.4 355.43Z" id="c1W8jWJ7Y3"></path><path d="M193.09 360.36C188.13 360.36 184.1 364.38 184.1 369.35C184.1 374.31 188.13 378.34 193.09 378.34C198.06 378.34 202.09 374.31 202.09 369.35C202.09 364.38 198.06 360.36 193.09 360.36Z" id="b767GbLgf"></path></defs><g><g><use xlink:href="#d1fOo1iVEF" opacity="1" fill="#3f3d56" fill-opacity="1"></use><g><use xlink:href="#d1fOo1iVEF" opacity="1" fill-opacity="0" stroke="#000000" stroke-width="1" stroke-opacity="0"></use></g></g><g><use xlink:href="#g2UNUAxZfv" opacity="1" fill="#000000" fill-opacity="1"></use><g><use xlink:href="#g2UNUAxZfv" opacity="1" fill-opacity="0" stroke="#000000" stroke-width="1" stroke-opacity="0"></use></g></g><g><use xlink:href="#avpWwFK2s" opacity="1" fill="#3f3d56" fill-opacity="1"></use><g><use xlink:href="#avpWwFK2s" opacity="1" fill-opacity="0" stroke="#000000" stroke-width="1" stroke-opacity="0"></use></g></g><g><use xlink:href="#e1yhhSmRbu" opacity="1" fill="#3f3d56" fill-opacity="1"></use><g><use xlink:href="#e1yhhSmRbu" opacity="1" fill-opacity="0" stroke="#000000" stroke-width="1" stroke-opacity="0"></use></g></g><g><use xlink:href="#b1lADnCcI3" opacity="1" fill="#3f3d56" fill-opacity="1"></use><g><use xlink:href="#b1lADnCcI3" opacity="1" fill-opacity="0" stroke="#000000" stroke-width="1" stroke-opacity="0"></use></g></g><g><use xlink:href="#a7YVKKQSr" opacity="1" fill="#3f3d56" fill-opacity="1"></use><g><use xlink:href="#a7YVKKQSr" opacity="1" fill-opacity="0" stroke="#000000" stroke-width="1" stroke-opacity="0"></use></g></g><g><use xlink:href="#f3EGJr9j2t" opacity="1" fill="#3f3d56" fill-opacity="1"></use><g><use xlink:href="#f3EGJr9j2t" opacity="1" fill-opacity="0" stroke="#000000" stroke-width="1" stroke-opacity="0"></use></g></g><g><use xlink:href="#b1rRTghDqd" opacity="1" fill="#3f3d56" fill-opacity="1"></use><g><use xlink:href="#b1rRTghDqd" opacity="1" fill-opacity="0" stroke="#000000" stroke-width="1" stroke-opacity="0"></use></g></g><g><use xlink:href="#a1btPqFjEE" opacity="1" fill="#e6e6e6" fill-opacity="1"></use><g><use xlink:href="#a1btPqFjEE" opacity="1" fill-opacity="0" stroke="#000000" stroke-width="1" stroke-opacity="0"></use></g></g><g><use xlink:href="#aceeXAr3AC" opacity="1" fill="#e6e6e6" fill-opacity="1"></use><g><use xlink:href="#aceeXAr3AC" opacity="1" fill-opacity="0" stroke="#000000" stroke-width="1" stroke-opacity="0"></use></g></g><g><use xlink:href="#b1EZczkHJ" opacity="1" fill="#e6e6e6" fill-opacity="1"></use><g><use xlink:href="#b1EZczkHJ" opacity="1" fill-opacity="0" stroke="#000000" stroke-width="1" stroke-opacity="0"></use></g></g><g><use xlink:href="#f1gMnATd81" opacity="1" fill="#3f3d56" fill-opacity="1"></use><g><use xlink:href="#f1gMnATd81" opacity="1" fill-opacity="0" stroke="#000000" stroke-width="1" stroke-opacity="0"></use></g></g><g><use xlink:href="#asRuW4Zal" opacity="1" fill="#ff6584" fill-opacity="1"></use><g><use xlink:href="#asRuW4Zal" opacity="1" fill-opacity="0" stroke="#000000" stroke-width="1" stroke-opacity="0"></use></g></g><g><use xlink:href="#d1DBkiIdd" opacity="1" fill="#3f3d56" fill-opacity="1"></use><g><use xlink:href="#d1DBkiIdd" opacity="1" fill-opacity="0" stroke="#000000" stroke-width="1" stroke-opacity="0"></use></g></g><g><use xlink:href="#c5AkTP9mI" opacity="1" fill="#3f3d56" fill-opacity="1"></use><g><use xlink:href="#c5AkTP9mI" opacity="1" fill-opacity="0" stroke="#000000" stroke-width="1" stroke-opacity="0"></use></g></g><g><use xlink:href="#bmwsUl1O5" opacity="1" fill="#6c63ff" fill-opacity="1"></use><g><use xlink:href="#bmwsUl1O5" opacity="1" fill-opacity="0" stroke="#000000" stroke-width="1" stroke-opacity="0"></use></g></g><g><use xlink:href="#bDpzwSvZl" opacity="1" fill="#e6e6e6" fill-opacity="1"></use><g><use xlink:href="#bDpzwSvZl" opacity="1" fill-opacity="0" stroke="#000000" stroke-width="1" stroke-opacity="0"></use></g></g><g><use xlink:href="#c3F2sPE07f" opacity="1" fill="#e6e6e6" fill-opacity="1"></use><g><use xlink:href="#c3F2sPE07f" opacity="1" fill-opacity="0" stroke="#000000" stroke-width="1" stroke-opacity="0"></use></g></g><g><use xlink:href="#d2mAdHZ52b" opacity="1" fill="#3f3d56" fill-opacity="1"></use><g><use xlink:href="#d2mAdHZ52b" opacity="1" fill-opacity="0" stroke="#000000" stroke-width="1" stroke-opacity="0"></use></g></g><g><use xlink:href="#b14HMb0f0I" opacity="1" fill="#3f3d56" fill-opacity="1"></use><g><use xlink:href="#b14HMb0f0I" opacity="1" fill-opacity="0" stroke="#000000" stroke-width="1" stroke-opacity="0"></use></g></g><g><use xlink:href="#b6hPweewLU" opacity="1" fill="#3f3d56" fill-opacity="1"></use><g><use xlink:href="#b6hPweewLU" opacity="1" fill-opacity="0" stroke="#000000" stroke-width="1" stroke-opacity="0"></use></g></g><g><use xlink:href="#c1W8jWJ7Y3" opacity="1" fill="#6c63ff" fill-opacity="1"></use><g><use xlink:href="#c1W8jWJ7Y3" opacity="1" fill-opacity="0" stroke="#000000" stroke-width="1" stroke-opacity="0"></use></g></g><g><use xlink:href="#b767GbLgf" opacity="1" fill="#6c63ff" fill-opacity="1"></use><g><use xlink:href="#b767GbLgf" opacity="1" fill-opacity="0" stroke="#000000" stroke-width="1" stroke-opacity="0"></use></g></g></g></svg>